<svg width="11" height="10" viewBox="0 0 11 10" fill="#737373" xmlns="http://www.w3.org/2000/svg">
<path d="M1.62339 0.251614C1.44567 0.0860145 1.21061 -0.00413921 0.967732 0.000146059C0.724856 0.00443133 0.493124 0.102821 0.321358 0.274587C0.149592 0.446354 0.051202 0.678085 0.0469168 0.920961C0.0426315 1.16384 0.132785 1.3989 0.298385 1.57661L3.69839 4.97661L0.298385 8.37662C0.206277 8.46244 0.132399 8.56594 0.081159 8.68094C0.0299191 8.79594 0.00236688 8.92008 0.000145901 9.04596C-0.00207508 9.17184 0.0210807 9.29688 0.068232 9.41361C0.115383 9.53035 0.185564 9.63639 0.274587 9.72541C0.363611 9.81444 0.469653 9.88462 0.586388 9.93177C0.703124 9.97892 0.82816 10.0021 0.954039 9.99986C1.07992 9.99763 1.20406 9.97008 1.31906 9.91884C1.43406 9.8676 1.53756 9.79372 1.62339 9.70161L5.02339 6.30162L8.42339 9.70161C8.50921 9.79372 8.61271 9.8676 8.72771 9.91884C8.84271 9.97008 8.96685 9.99763 9.09273 9.99986C9.21861 10.0021 9.34365 9.97892 9.46038 9.93177C9.57712 9.88462 9.68316 9.81444 9.77218 9.72541C9.86121 9.63639 9.93139 9.53035 9.97854 9.41361C10.0257 9.29688 10.0488 9.17184 10.0466 9.04596C10.0444 8.92008 10.0169 8.79594 9.96561 8.68094C9.91437 8.56594 9.84049 8.46244 9.74838 8.37662L6.34839 4.97661L9.74838 1.57661C9.91399 1.3989 10.0041 1.16384 9.99986 0.920961C9.99557 0.678085 9.89718 0.446354 9.72541 0.274587C9.55365 0.102821 9.32191 0.00443133 9.07904 0.000146059C8.83616 -0.00413921 8.6011 0.0860145 8.42339 0.251614L5.02339 3.65161L1.62339 0.251614Z" fill="inherit"/>
</svg>
